<mxfile host="app.diagrams.net" modified="2024-02-28T15:30:08.183Z" agent="Mozilla/5.0 (Windows NT 10.0; Win64; x64; rv:123.0) Gecko/20100101 Firefox/123.0" etag="81U5C2qN-JJ-4IgCGgdm" version="23.1.7" type="device">
  <diagram name="Page-1" id="Q9DxDUEaMlx4fyv6SIoC">
    <mxGraphModel dx="1274" dy="668" grid="1" gridSize="10" guides="1" tooltips="1" connect="1" arrows="1" fold="1" page="1" pageScale="1" pageWidth="850" pageHeight="1100" math="0" shadow="0">
      <root>
        <mxCell id="0" />
        <mxCell id="1" parent="0" />
        <mxCell id="VbI4Jq_ZDGjPwsj-5A3s-1" value="Alice: Receptionist" style="swimlane;fontStyle=1;align=center;verticalAlign=top;childLayout=stackLayout;horizontal=1;startSize=26;horizontalStack=0;resizeParent=1;resizeParentMax=0;resizeLast=0;collapsible=1;marginBottom=0;whiteSpace=wrap;html=1;" parent="1" vertex="1">
          <mxGeometry x="39" y="640" width="160" height="86" as="geometry" />
        </mxCell>
        <mxCell id="VbI4Jq_ZDGjPwsj-5A3s-2" value="+ name: &quot;Alice M.&quot;" style="text;strokeColor=none;fillColor=none;align=left;verticalAlign=top;spacingLeft=4;spacingRight=4;overflow=hidden;rotatable=0;points=[[0,0.5],[1,0.5]];portConstraint=eastwest;whiteSpace=wrap;html=1;" parent="VbI4Jq_ZDGjPwsj-5A3s-1" vertex="1">
          <mxGeometry y="26" width="160" height="26" as="geometry" />
        </mxCell>
        <mxCell id="VbI4Jq_ZDGjPwsj-5A3s-63" value="ID: 1237" style="text;strokeColor=none;fillColor=none;align=left;verticalAlign=top;spacingLeft=4;spacingRight=4;overflow=hidden;rotatable=0;points=[[0,0.5],[1,0.5]];portConstraint=eastwest;whiteSpace=wrap;html=1;" parent="VbI4Jq_ZDGjPwsj-5A3s-1" vertex="1">
          <mxGeometry y="52" width="160" height="26" as="geometry" />
        </mxCell>
        <mxCell id="VbI4Jq_ZDGjPwsj-5A3s-3" value="" style="line;strokeWidth=1;fillColor=none;align=left;verticalAlign=middle;spacingTop=-1;spacingLeft=3;spacingRight=3;rotatable=0;labelPosition=right;points=[];portConstraint=eastwest;strokeColor=inherit;" parent="VbI4Jq_ZDGjPwsj-5A3s-1" vertex="1">
          <mxGeometry y="78" width="160" height="8" as="geometry" />
        </mxCell>
        <mxCell id="VbI4Jq_ZDGjPwsj-5A3s-32" style="edgeStyle=orthogonalEdgeStyle;rounded=0;orthogonalLoop=1;jettySize=auto;html=1;entryX=0.5;entryY=1;entryDx=0;entryDy=0;" parent="1" source="VbI4Jq_ZDGjPwsj-5A3s-5" target="VbI4Jq_ZDGjPwsj-5A3s-19" edge="1">
          <mxGeometry relative="1" as="geometry">
            <Array as="points">
              <mxPoint x="430" y="580" />
              <mxPoint x="505" y="580" />
            </Array>
          </mxGeometry>
        </mxCell>
        <mxCell id="VbI4Jq_ZDGjPwsj-5A3s-33" style="edgeStyle=orthogonalEdgeStyle;rounded=0;orthogonalLoop=1;jettySize=auto;html=1;entryX=0.5;entryY=1;entryDx=0;entryDy=0;" parent="1" source="VbI4Jq_ZDGjPwsj-5A3s-5" target="VbI4Jq_ZDGjPwsj-5A3s-20" edge="1">
          <mxGeometry relative="1" as="geometry">
            <Array as="points">
              <mxPoint x="450" y="610" />
              <mxPoint x="580" y="610" />
              <mxPoint x="580" y="390" />
            </Array>
          </mxGeometry>
        </mxCell>
        <mxCell id="VbI4Jq_ZDGjPwsj-5A3s-5" value="Bob: Nurse" style="swimlane;fontStyle=1;align=center;verticalAlign=top;childLayout=stackLayout;horizontal=1;startSize=26;horizontalStack=0;resizeParent=1;resizeParentMax=0;resizeLast=0;collapsible=1;marginBottom=0;whiteSpace=wrap;html=1;" parent="1" vertex="1">
          <mxGeometry x="320" y="640" width="160" height="86" as="geometry" />
        </mxCell>
        <mxCell id="VbI4Jq_ZDGjPwsj-5A3s-6" value="name: &quot;Bob T.&quot;" style="text;strokeColor=none;fillColor=none;align=left;verticalAlign=top;spacingLeft=4;spacingRight=4;overflow=hidden;rotatable=0;points=[[0,0.5],[1,0.5]];portConstraint=eastwest;whiteSpace=wrap;html=1;" parent="VbI4Jq_ZDGjPwsj-5A3s-5" vertex="1">
          <mxGeometry y="26" width="160" height="26" as="geometry" />
        </mxCell>
        <mxCell id="VbI4Jq_ZDGjPwsj-5A3s-65" value="ID: 1006" style="text;strokeColor=none;fillColor=none;align=left;verticalAlign=top;spacingLeft=4;spacingRight=4;overflow=hidden;rotatable=0;points=[[0,0.5],[1,0.5]];portConstraint=eastwest;whiteSpace=wrap;html=1;" parent="VbI4Jq_ZDGjPwsj-5A3s-5" vertex="1">
          <mxGeometry y="52" width="160" height="26" as="geometry" />
        </mxCell>
        <mxCell id="VbI4Jq_ZDGjPwsj-5A3s-7" value="" style="line;strokeWidth=1;fillColor=none;align=left;verticalAlign=middle;spacingTop=-1;spacingLeft=3;spacingRight=3;rotatable=0;labelPosition=right;points=[];portConstraint=eastwest;strokeColor=inherit;" parent="VbI4Jq_ZDGjPwsj-5A3s-5" vertex="1">
          <mxGeometry y="78" width="160" height="8" as="geometry" />
        </mxCell>
        <mxCell id="VbI4Jq_ZDGjPwsj-5A3s-22" style="edgeStyle=orthogonalEdgeStyle;rounded=0;orthogonalLoop=1;jettySize=auto;html=1;entryX=1;entryY=1;entryDx=0;entryDy=0;" parent="1" source="VbI4Jq_ZDGjPwsj-5A3s-9" target="VbI4Jq_ZDGjPwsj-5A3s-16" edge="1">
          <mxGeometry relative="1" as="geometry">
            <Array as="points">
              <mxPoint x="690" y="595" />
              <mxPoint x="670" y="595" />
            </Array>
          </mxGeometry>
        </mxCell>
        <mxCell id="VbI4Jq_ZDGjPwsj-5A3s-23" style="edgeStyle=orthogonalEdgeStyle;rounded=0;orthogonalLoop=1;jettySize=auto;html=1;entryX=0.5;entryY=1;entryDx=0;entryDy=0;" parent="1" source="VbI4Jq_ZDGjPwsj-5A3s-9" target="VbI4Jq_ZDGjPwsj-5A3s-18" edge="1">
          <mxGeometry relative="1" as="geometry">
            <Array as="points">
              <mxPoint x="750" y="595" />
              <mxPoint x="775" y="595" />
            </Array>
          </mxGeometry>
        </mxCell>
        <mxCell id="VbI4Jq_ZDGjPwsj-5A3s-9" value="Charlie: Doctor" style="swimlane;fontStyle=1;align=center;verticalAlign=top;childLayout=stackLayout;horizontal=1;startSize=26;horizontalStack=0;resizeParent=1;resizeParentMax=0;resizeLast=0;collapsible=1;marginBottom=0;whiteSpace=wrap;html=1;" parent="1" vertex="1">
          <mxGeometry x="640" y="640" width="160" height="86" as="geometry" />
        </mxCell>
        <mxCell id="VbI4Jq_ZDGjPwsj-5A3s-10" value="name: &quot;Charlie B.&quot;" style="text;strokeColor=none;fillColor=none;align=left;verticalAlign=top;spacingLeft=4;spacingRight=4;overflow=hidden;rotatable=0;points=[[0,0.5],[1,0.5]];portConstraint=eastwest;whiteSpace=wrap;html=1;" parent="VbI4Jq_ZDGjPwsj-5A3s-9" vertex="1">
          <mxGeometry y="26" width="160" height="26" as="geometry" />
        </mxCell>
        <mxCell id="VbI4Jq_ZDGjPwsj-5A3s-67" value="ID: 1003" style="text;strokeColor=none;fillColor=none;align=left;verticalAlign=top;spacingLeft=4;spacingRight=4;overflow=hidden;rotatable=0;points=[[0,0.5],[1,0.5]];portConstraint=eastwest;whiteSpace=wrap;html=1;" parent="VbI4Jq_ZDGjPwsj-5A3s-9" vertex="1">
          <mxGeometry y="52" width="160" height="26" as="geometry" />
        </mxCell>
        <mxCell id="VbI4Jq_ZDGjPwsj-5A3s-11" value="" style="line;strokeWidth=1;fillColor=none;align=left;verticalAlign=middle;spacingTop=-1;spacingLeft=3;spacingRight=3;rotatable=0;labelPosition=right;points=[];portConstraint=eastwest;strokeColor=inherit;" parent="VbI4Jq_ZDGjPwsj-5A3s-9" vertex="1">
          <mxGeometry y="78" width="160" height="8" as="geometry" />
        </mxCell>
        <mxCell id="VbI4Jq_ZDGjPwsj-5A3s-51" style="edgeStyle=orthogonalEdgeStyle;rounded=0;orthogonalLoop=1;jettySize=auto;html=1;entryX=0.125;entryY=1.375;entryDx=0;entryDy=0;entryPerimeter=0;" parent="1" source="VbI4Jq_ZDGjPwsj-5A3s-13" target="VbI4Jq_ZDGjPwsj-5A3s-38" edge="1">
          <mxGeometry relative="1" as="geometry">
            <mxPoint x="265" y="283" as="targetPoint" />
          </mxGeometry>
        </mxCell>
        <mxCell id="VbI4Jq_ZDGjPwsj-5A3s-62" style="edgeStyle=orthogonalEdgeStyle;rounded=0;orthogonalLoop=1;jettySize=auto;html=1;" parent="1" source="VbI4Jq_ZDGjPwsj-5A3s-13" edge="1" target="VbI4Jq_ZDGjPwsj-5A3s-42">
          <mxGeometry relative="1" as="geometry">
            <mxPoint x="670" y="300" as="targetPoint" />
            <Array as="points">
              <mxPoint x="140" y="470" />
              <mxPoint x="671" y="470" />
            </Array>
          </mxGeometry>
        </mxCell>
        <mxCell id="VbI4Jq_ZDGjPwsj-5A3s-13" value="«interface»&lt;b&gt;&lt;br&gt;admitPatient&lt;br&gt;&lt;/b&gt;" style="html=1;whiteSpace=wrap;" parent="1" vertex="1">
          <mxGeometry x="60" y="500" width="110" height="50" as="geometry" />
        </mxCell>
        <mxCell id="VbI4Jq_ZDGjPwsj-5A3s-50" style="edgeStyle=orthogonalEdgeStyle;rounded=0;orthogonalLoop=1;jettySize=auto;html=1;entryX=0.25;entryY=1;entryDx=0;entryDy=0;" parent="1" source="VbI4Jq_ZDGjPwsj-5A3s-14" target="VbI4Jq_ZDGjPwsj-5A3s-36" edge="1">
          <mxGeometry relative="1" as="geometry">
            <mxPoint x="265" y="283" as="targetPoint" />
          </mxGeometry>
        </mxCell>
        <mxCell id="VbI4Jq_ZDGjPwsj-5A3s-61" style="edgeStyle=orthogonalEdgeStyle;rounded=0;orthogonalLoop=1;jettySize=auto;html=1;" parent="1" source="VbI4Jq_ZDGjPwsj-5A3s-14" edge="1" target="VbI4Jq_ZDGjPwsj-5A3s-42">
          <mxGeometry relative="1" as="geometry">
            <mxPoint x="710" y="300" as="targetPoint" />
            <Array as="points">
              <mxPoint x="280" y="490" />
              <mxPoint x="711" y="490" />
            </Array>
          </mxGeometry>
        </mxCell>
        <mxCell id="VbI4Jq_ZDGjPwsj-5A3s-14" value="«interface»&lt;br&gt;&lt;b&gt;homePage&lt;br&gt;&lt;/b&gt;" style="html=1;whiteSpace=wrap;" parent="1" vertex="1">
          <mxGeometry x="200" y="500" width="110" height="50" as="geometry" />
        </mxCell>
        <mxCell id="VbI4Jq_ZDGjPwsj-5A3s-49" style="edgeStyle=orthogonalEdgeStyle;rounded=0;orthogonalLoop=1;jettySize=auto;html=1;" parent="1" source="VbI4Jq_ZDGjPwsj-5A3s-15" edge="1">
          <mxGeometry relative="1" as="geometry">
            <mxPoint x="350" y="250" as="targetPoint" />
            <Array as="points">
              <mxPoint x="435" y="283" />
            </Array>
          </mxGeometry>
        </mxCell>
        <mxCell id="VbI4Jq_ZDGjPwsj-5A3s-60" style="edgeStyle=orthogonalEdgeStyle;rounded=0;orthogonalLoop=1;jettySize=auto;html=1;" parent="1" source="VbI4Jq_ZDGjPwsj-5A3s-15" edge="1">
          <mxGeometry relative="1" as="geometry">
            <mxPoint x="680" y="250" as="targetPoint" />
            <Array as="points">
              <mxPoint x="435" y="480" />
              <mxPoint x="681" y="480" />
            </Array>
          </mxGeometry>
        </mxCell>
        <mxCell id="VbI4Jq_ZDGjPwsj-5A3s-15" value="«interface»&lt;br&gt;&lt;b&gt;patientInfo&lt;br&gt;&lt;/b&gt;" style="html=1;whiteSpace=wrap;" parent="1" vertex="1">
          <mxGeometry x="380" y="500" width="110" height="50" as="geometry" />
        </mxCell>
        <mxCell id="VbI4Jq_ZDGjPwsj-5A3s-48" style="edgeStyle=orthogonalEdgeStyle;rounded=0;orthogonalLoop=1;jettySize=auto;html=1;" parent="1" source="VbI4Jq_ZDGjPwsj-5A3s-16" edge="1">
          <mxGeometry relative="1" as="geometry">
            <mxPoint x="690" y="250" as="targetPoint" />
            <Array as="points">
              <mxPoint x="660" y="410" />
              <mxPoint x="693" y="410" />
            </Array>
          </mxGeometry>
        </mxCell>
        <mxCell id="VbI4Jq_ZDGjPwsj-5A3s-16" value="«interface»&lt;br&gt;&lt;b&gt;dischargePatient&lt;br&gt;&lt;/b&gt;" style="html=1;whiteSpace=wrap;" parent="1" vertex="1">
          <mxGeometry x="590" y="500" width="110" height="50" as="geometry" />
        </mxCell>
        <mxCell id="VbI4Jq_ZDGjPwsj-5A3s-18" value="«interface»&lt;br&gt;&lt;b&gt;prescription&lt;br&gt;&lt;/b&gt;" style="html=1;whiteSpace=wrap;" parent="1" vertex="1">
          <mxGeometry x="720" y="500" width="110" height="50" as="geometry" />
        </mxCell>
        <mxCell id="VbI4Jq_ZDGjPwsj-5A3s-19" value="«interface»&lt;br&gt;&lt;b&gt;testing&lt;br&gt;&lt;/b&gt;" style="html=1;whiteSpace=wrap;" parent="1" vertex="1">
          <mxGeometry x="450" y="410" width="110" height="50" as="geometry" />
        </mxCell>
        <mxCell id="VbI4Jq_ZDGjPwsj-5A3s-45" style="edgeStyle=orthogonalEdgeStyle;rounded=0;orthogonalLoop=1;jettySize=auto;html=1;entryX=0.425;entryY=1.375;entryDx=0;entryDy=0;entryPerimeter=0;" parent="1" source="VbI4Jq_ZDGjPwsj-5A3s-20" target="VbI4Jq_ZDGjPwsj-5A3s-42" edge="1">
          <mxGeometry relative="1" as="geometry">
            <mxPoint x="660.96" y="268.15999999999997" as="targetPoint" />
            <Array as="points">
              <mxPoint x="585" y="317" />
              <mxPoint x="650" y="317" />
              <mxPoint x="650" y="245" />
            </Array>
          </mxGeometry>
        </mxCell>
        <mxCell id="VbI4Jq_ZDGjPwsj-5A3s-20" value="«interface»&lt;br&gt;&lt;b&gt;vitals&lt;br&gt;&lt;/b&gt;" style="html=1;whiteSpace=wrap;" parent="1" vertex="1">
          <mxGeometry x="530" y="340" width="110" height="50" as="geometry" />
        </mxCell>
        <mxCell id="VbI4Jq_ZDGjPwsj-5A3s-24" style="edgeStyle=orthogonalEdgeStyle;rounded=0;orthogonalLoop=1;jettySize=auto;html=1;entryX=1;entryY=0.5;entryDx=0;entryDy=0;" parent="1" source="VbI4Jq_ZDGjPwsj-5A3s-26" target="VbI4Jq_ZDGjPwsj-5A3s-6" edge="1">
          <mxGeometry relative="1" as="geometry">
            <Array as="points">
              <mxPoint x="500" y="674" />
              <mxPoint x="500" y="679" />
            </Array>
          </mxGeometry>
        </mxCell>
        <mxCell id="VbI4Jq_ZDGjPwsj-5A3s-25" value="" style="edgeStyle=orthogonalEdgeStyle;rounded=0;orthogonalLoop=1;jettySize=auto;html=1;entryX=1;entryY=0.5;entryDx=0;entryDy=0;" parent="1" source="VbI4Jq_ZDGjPwsj-5A3s-10" target="VbI4Jq_ZDGjPwsj-5A3s-26" edge="1">
          <mxGeometry relative="1" as="geometry">
            <mxPoint x="640" y="679" as="sourcePoint" />
            <mxPoint x="480" y="679" as="targetPoint" />
          </mxGeometry>
        </mxCell>
        <mxCell id="VbI4Jq_ZDGjPwsj-5A3s-26" value="extends" style="text;align=center;fontStyle=1;verticalAlign=middle;spacingLeft=3;spacingRight=3;strokeColor=none;rotatable=0;points=[[0,0.5],[1,0.5]];portConstraint=eastwest;html=1;" parent="1" vertex="1">
          <mxGeometry x="520" y="661" width="50" height="26" as="geometry" />
        </mxCell>
        <mxCell id="VbI4Jq_ZDGjPwsj-5A3s-28" style="edgeStyle=orthogonalEdgeStyle;rounded=0;orthogonalLoop=1;jettySize=auto;html=1;entryX=0.345;entryY=1.02;entryDx=0;entryDy=0;entryPerimeter=0;" parent="1" source="VbI4Jq_ZDGjPwsj-5A3s-1" target="VbI4Jq_ZDGjPwsj-5A3s-13" edge="1">
          <mxGeometry relative="1" as="geometry">
            <Array as="points">
              <mxPoint x="90" y="595" />
              <mxPoint x="98" y="595" />
            </Array>
          </mxGeometry>
        </mxCell>
        <mxCell id="VbI4Jq_ZDGjPwsj-5A3s-29" style="edgeStyle=orthogonalEdgeStyle;rounded=0;orthogonalLoop=1;jettySize=auto;html=1;" parent="1" source="VbI4Jq_ZDGjPwsj-5A3s-1" target="VbI4Jq_ZDGjPwsj-5A3s-14" edge="1">
          <mxGeometry relative="1" as="geometry">
            <Array as="points">
              <mxPoint x="120" y="610" />
              <mxPoint x="241" y="610" />
            </Array>
          </mxGeometry>
        </mxCell>
        <mxCell id="VbI4Jq_ZDGjPwsj-5A3s-31" style="edgeStyle=orthogonalEdgeStyle;rounded=0;orthogonalLoop=1;jettySize=auto;html=1;entryX=0.136;entryY=1.04;entryDx=0;entryDy=0;entryPerimeter=0;" parent="1" source="VbI4Jq_ZDGjPwsj-5A3s-5" target="VbI4Jq_ZDGjPwsj-5A3s-15" edge="1">
          <mxGeometry relative="1" as="geometry">
            <Array as="points">
              <mxPoint x="380" y="595" />
              <mxPoint x="395" y="595" />
            </Array>
          </mxGeometry>
        </mxCell>
        <mxCell id="VbI4Jq_ZDGjPwsj-5A3s-34" style="edgeStyle=orthogonalEdgeStyle;rounded=0;orthogonalLoop=1;jettySize=auto;html=1;entryX=0.627;entryY=0.96;entryDx=0;entryDy=0;entryPerimeter=0;" parent="1" source="VbI4Jq_ZDGjPwsj-5A3s-5" target="VbI4Jq_ZDGjPwsj-5A3s-14" edge="1">
          <mxGeometry relative="1" as="geometry" />
        </mxCell>
        <mxCell id="VbI4Jq_ZDGjPwsj-5A3s-59" style="edgeStyle=orthogonalEdgeStyle;rounded=0;orthogonalLoop=1;jettySize=auto;html=1;entryX=0;entryY=0.5;entryDx=0;entryDy=0;" parent="1" source="VbI4Jq_ZDGjPwsj-5A3s-36" target="VbI4Jq_ZDGjPwsj-5A3s-44" edge="1">
          <mxGeometry relative="1" as="geometry" />
        </mxCell>
        <mxCell id="VbI4Jq_ZDGjPwsj-5A3s-36" value="DatabaseIterator" style="swimlane;fontStyle=1;align=center;verticalAlign=top;childLayout=stackLayout;horizontal=1;startSize=26;horizontalStack=0;resizeParent=1;resizeParentMax=0;resizeLast=0;collapsible=1;marginBottom=0;whiteSpace=wrap;html=1;" parent="1" vertex="1">
          <mxGeometry x="265" y="210" width="160" height="34" as="geometry" />
        </mxCell>
        <mxCell id="VbI4Jq_ZDGjPwsj-5A3s-38" value="" style="line;strokeWidth=1;fillColor=none;align=left;verticalAlign=middle;spacingTop=-1;spacingLeft=3;spacingRight=3;rotatable=0;labelPosition=right;points=[];portConstraint=eastwest;strokeColor=inherit;" parent="VbI4Jq_ZDGjPwsj-5A3s-36" vertex="1">
          <mxGeometry y="26" width="160" height="8" as="geometry" />
        </mxCell>
        <mxCell id="VbI4Jq_ZDGjPwsj-5A3s-58" style="edgeStyle=orthogonalEdgeStyle;rounded=0;orthogonalLoop=1;jettySize=auto;html=1;entryX=1;entryY=0.5;entryDx=0;entryDy=0;" parent="1" source="VbI4Jq_ZDGjPwsj-5A3s-40" target="VbI4Jq_ZDGjPwsj-5A3s-44" edge="1">
          <mxGeometry relative="1" as="geometry">
            <Array as="points">
              <mxPoint x="650" y="75" />
            </Array>
          </mxGeometry>
        </mxCell>
        <mxCell id="VbI4Jq_ZDGjPwsj-5A3s-40" value="FunctionHelper" style="swimlane;fontStyle=1;align=center;verticalAlign=top;childLayout=stackLayout;horizontal=1;startSize=26;horizontalStack=0;resizeParent=1;resizeParentMax=0;resizeLast=0;collapsible=1;marginBottom=0;whiteSpace=wrap;html=1;" parent="1" vertex="1">
          <mxGeometry x="580" y="208" width="160" height="34" as="geometry" />
        </mxCell>
        <mxCell id="VbI4Jq_ZDGjPwsj-5A3s-42" value="" style="line;strokeWidth=1;fillColor=none;align=left;verticalAlign=middle;spacingTop=-1;spacingLeft=3;spacingRight=3;rotatable=0;labelPosition=right;points=[];portConstraint=eastwest;strokeColor=inherit;" parent="VbI4Jq_ZDGjPwsj-5A3s-40" vertex="1">
          <mxGeometry y="26" width="160" height="8" as="geometry" />
        </mxCell>
        <mxCell id="VbI4Jq_ZDGjPwsj-5A3s-44" value="Database" style="html=1;whiteSpace=wrap;" parent="1" vertex="1">
          <mxGeometry x="425" y="50" width="110" height="50" as="geometry" />
        </mxCell>
        <mxCell id="VbI4Jq_ZDGjPwsj-5A3s-46" style="edgeStyle=orthogonalEdgeStyle;rounded=0;orthogonalLoop=1;jettySize=auto;html=1;entryX=-0.025;entryY=-0.2;entryDx=0;entryDy=0;entryPerimeter=0;" parent="1" source="VbI4Jq_ZDGjPwsj-5A3s-19" edge="1">
          <mxGeometry relative="1" as="geometry">
            <mxPoint x="576" y="238" as="targetPoint" />
          </mxGeometry>
        </mxCell>
        <mxCell id="VbI4Jq_ZDGjPwsj-5A3s-47" style="edgeStyle=orthogonalEdgeStyle;rounded=0;orthogonalLoop=1;jettySize=auto;html=1;entryX=0.994;entryY=-0.5;entryDx=0;entryDy=0;entryPerimeter=0;" parent="1" source="VbI4Jq_ZDGjPwsj-5A3s-18" target="VbI4Jq_ZDGjPwsj-5A3s-42" edge="1">
          <mxGeometry relative="1" as="geometry" />
        </mxCell>
        <mxCell id="VbI4Jq_ZDGjPwsj-5A3s-53" style="edgeStyle=orthogonalEdgeStyle;rounded=0;orthogonalLoop=1;jettySize=auto;html=1;" parent="1" source="VbI4Jq_ZDGjPwsj-5A3s-19" edge="1">
          <mxGeometry relative="1" as="geometry">
            <mxPoint x="400" y="250" as="targetPoint" />
          </mxGeometry>
        </mxCell>
        <mxCell id="VbI4Jq_ZDGjPwsj-5A3s-54" style="edgeStyle=orthogonalEdgeStyle;rounded=0;orthogonalLoop=1;jettySize=auto;html=1;entryX=0.975;entryY=0.269;entryDx=0;entryDy=0;entryPerimeter=0;" parent="1" source="VbI4Jq_ZDGjPwsj-5A3s-20" edge="1">
          <mxGeometry relative="1" as="geometry">
            <Array as="points">
              <mxPoint x="550" y="243" />
            </Array>
            <mxPoint x="421" y="242.99400000000003" as="targetPoint" />
          </mxGeometry>
        </mxCell>
        <mxCell id="VbI4Jq_ZDGjPwsj-5A3s-55" style="edgeStyle=orthogonalEdgeStyle;rounded=0;orthogonalLoop=1;jettySize=auto;html=1;entryX=0.675;entryY=1.125;entryDx=0;entryDy=0;entryPerimeter=0;" parent="1" source="VbI4Jq_ZDGjPwsj-5A3s-16" target="VbI4Jq_ZDGjPwsj-5A3s-38" edge="1">
          <mxGeometry relative="1" as="geometry">
            <Array as="points">
              <mxPoint x="645" y="300" />
              <mxPoint x="460" y="300" />
              <mxPoint x="460" y="278" />
              <mxPoint x="373" y="278" />
            </Array>
            <mxPoint x="433" y="278.00800000000004" as="targetPoint" />
          </mxGeometry>
        </mxCell>
        <mxCell id="VbI4Jq_ZDGjPwsj-5A3s-56" style="edgeStyle=orthogonalEdgeStyle;rounded=0;orthogonalLoop=1;jettySize=auto;html=1;" parent="1" source="VbI4Jq_ZDGjPwsj-5A3s-18" edge="1">
          <mxGeometry relative="1" as="geometry">
            <Array as="points">
              <mxPoint x="750" y="330" />
              <mxPoint x="490" y="330" />
              <mxPoint x="490" y="285" />
            </Array>
            <mxPoint x="330" y="250" as="targetPoint" />
          </mxGeometry>
        </mxCell>
        <mxCell id="VbI4Jq_ZDGjPwsj-5A3s-57" style="edgeStyle=orthogonalEdgeStyle;rounded=0;orthogonalLoop=1;jettySize=auto;html=1;exitX=1;exitY=0.25;exitDx=0;exitDy=0;" parent="1" source="VbI4Jq_ZDGjPwsj-5A3s-36" edge="1">
          <mxGeometry relative="1" as="geometry">
            <Array as="points">
              <mxPoint x="425" y="227" />
              <mxPoint x="460" y="227" />
              <mxPoint x="460" y="270" />
              <mxPoint x="610" y="270" />
            </Array>
            <mxPoint x="440" y="210" as="sourcePoint" />
            <mxPoint x="610" y="250" as="targetPoint" />
          </mxGeometry>
        </mxCell>
      </root>
    </mxGraphModel>
  </diagram>
</mxfile>
